<svg width="107" height="44" viewBox="0 0 107 44" fill="none" xmlns="http://www.w3.org/2000/svg">
<g filter="url(#filter0_d_50_3958)">
<path d="M4 0H103V36H4V0Z" fill="#FC825B"/>
</g>
<path d="M9.30114 23H6.31818L9.67898 12.8182H13.4574L16.8182 23H13.8352L11.608 15.6222H11.5284L9.30114 23ZM8.74432 18.983H14.3523V21.0511H8.74432V18.983ZM17.8386 23V15.3636H21.1795C22.2037 15.3636 23.0091 15.5376 23.5957 15.8857C24.1857 16.2337 24.4806 16.7557 24.4806 17.4517C24.4806 17.8295 24.3149 18.1643 23.9835 18.456C23.6554 18.7476 23.1781 18.9432 22.5517 19.0426C23.1284 19.0691 23.5957 19.1752 23.9537 19.3608C24.3149 19.5431 24.5784 19.7718 24.7441 20.0469C24.9132 20.3187 24.9977 20.6004 24.9977 20.892C24.9977 21.3561 24.8717 21.7455 24.6199 22.0604C24.368 22.3719 23.9967 22.6072 23.5062 22.7663C23.0157 22.9221 22.4125 23 21.6966 23H17.8386ZM20.3841 21.071H21.6966C21.9186 21.071 22.0926 21.018 22.2186 20.9119C22.3478 20.8059 22.4125 20.66 22.4125 20.4744C22.4125 20.2822 22.3478 20.1314 22.2186 20.022C22.0926 19.9126 21.9186 19.858 21.6966 19.858H20.3841V21.071ZM20.3841 18.4659H21.2591C21.4016 18.4659 21.5226 18.4444 21.622 18.4013C21.7214 18.3549 21.7976 18.2902 21.8507 18.2074C21.907 18.1245 21.9352 18.0251 21.9352 17.9091C21.9352 17.7334 21.8672 17.5975 21.7314 17.5014C21.5988 17.402 21.4148 17.3523 21.1795 17.3523H20.3841V18.4659ZM25.6776 17.4119V15.3636H33.0753V17.4119H30.6491V23H28.0639V17.4119H25.6776ZM37.582 23.1392C36.7534 23.1392 36.0442 22.9751 35.4542 22.647C34.8642 22.3156 34.4118 21.8549 34.0969 21.2649C33.7821 20.6716 33.6246 19.9839 33.6246 19.2017C33.6246 18.4195 33.7821 17.7334 34.0969 17.1435C34.4118 16.5502 34.8642 16.0895 35.4542 15.7614C36.0442 15.4299 36.7534 15.2642 37.582 15.2642C38.4106 15.2642 39.1199 15.4299 39.7099 15.7614C40.2998 16.0895 40.7522 16.5502 41.0671 17.1435C41.382 17.7334 41.5394 18.4195 41.5394 19.2017C41.5394 19.9839 41.382 20.6716 41.0671 21.2649C40.7522 21.8549 40.2998 22.3156 39.7099 22.647C39.1199 22.9751 38.4106 23.1392 37.582 23.1392ZM37.6019 21.1108C37.8339 21.1108 38.0344 21.0329 38.2035 20.8771C38.3725 20.7214 38.5034 20.4993 38.5962 20.2109C38.689 19.9226 38.7354 19.5795 38.7354 19.1818C38.7354 18.7808 38.689 18.4377 38.5962 18.1527C38.5034 17.8643 38.3725 17.6423 38.2035 17.4865C38.0344 17.3307 37.8339 17.2528 37.6019 17.2528C37.3567 17.2528 37.1462 17.3307 36.9705 17.4865C36.7949 17.6423 36.6606 17.8643 36.5678 18.1527C36.475 18.4377 36.4286 18.7808 36.4286 19.1818C36.4286 19.5795 36.475 19.9226 36.5678 20.2109C36.6606 20.4993 36.7949 20.7214 36.9705 20.8771C37.1462 21.0329 37.3567 21.1108 37.6019 21.1108ZM42.6531 25.8636V15.3636H45.3775V16.696H45.4371C45.5366 16.4375 45.6824 16.2005 45.8746 15.9851C46.0669 15.7663 46.3055 15.5923 46.5906 15.4631C46.8756 15.3305 47.207 15.2642 47.5849 15.2642C48.0887 15.2642 48.5676 15.3984 49.0217 15.6669C49.479 15.9354 49.8503 16.358 50.1353 16.9347C50.4237 17.5114 50.5678 18.2604 50.5678 19.1818C50.5678 20.0634 50.4303 20.7943 50.1552 21.3743C49.8834 21.9543 49.5188 22.3868 49.0614 22.6719C48.6074 22.9569 48.1085 23.0994 47.565 23.0994C47.207 23.0994 46.8872 23.0414 46.6055 22.9254C46.3271 22.8061 46.0884 22.6454 45.8896 22.4432C45.694 22.2377 45.5432 22.0057 45.4371 21.7472H45.3974V25.8636H42.6531ZM45.3377 19.1818C45.3377 19.553 45.3858 19.8745 45.4819 20.1463C45.5813 20.4148 45.7205 20.6236 45.8995 20.7727C46.0818 20.9186 46.2989 20.9915 46.5508 20.9915C46.8027 20.9915 47.0165 20.9202 47.1921 20.7777C47.3711 20.6319 47.507 20.4247 47.5998 20.1562C47.6959 19.8845 47.744 19.5597 47.744 19.1818C47.744 18.804 47.6959 18.4808 47.5998 18.2124C47.507 17.9406 47.3711 17.7334 47.1921 17.5909C47.0165 17.4451 46.8027 17.3722 46.5508 17.3722C46.2989 17.3722 46.0818 17.4451 45.8995 17.5909C45.7205 17.7334 45.5813 17.9406 45.4819 18.2124C45.3858 18.4808 45.3377 18.804 45.3377 19.1818ZM54.3027 19.5L56.4306 15.3636H59.0158V23H56.4306V18.8438L54.3027 23H51.7175V15.3636H54.3027V19.5ZM60.0748 20.6932H62.66C62.66 20.8854 62.7428 21.0429 62.9086 21.1655C63.0776 21.2881 63.293 21.3494 63.5549 21.3494C63.8167 21.3494 64.0305 21.2815 64.1962 21.1456C64.3652 21.0064 64.4498 20.8291 64.4498 20.6136C64.4498 20.4777 64.415 20.3584 64.3453 20.2557C64.2757 20.1496 64.1796 20.0668 64.057 20.0071C63.9344 19.9474 63.7935 19.9176 63.6344 19.9176H62.6799V18.3068H63.6344C63.8697 18.3068 64.0603 18.2505 64.2061 18.1378C64.3553 18.0251 64.4299 17.8826 64.4299 17.7102C64.4299 17.5114 64.3569 17.349 64.2111 17.223C64.0653 17.0971 63.8797 17.0341 63.6543 17.0341C63.4289 17.0341 63.2433 17.0855 63.0975 17.1882C62.9516 17.291 62.8787 17.4252 62.8787 17.5909H60.2935C60.2935 17.1004 60.4393 16.6828 60.731 16.3381C61.0227 15.9901 61.4138 15.7249 61.9043 15.5426C62.3948 15.357 62.9384 15.2642 63.535 15.2642C64.2177 15.2642 64.8044 15.3471 65.2949 15.5128C65.7855 15.6785 66.1616 15.9221 66.4235 16.2436C66.6853 16.5651 66.8162 16.9612 66.8162 17.4318C66.8162 17.8196 66.6754 18.1527 66.3936 18.4311C66.1119 18.7062 65.696 18.9034 65.1458 19.0227V19.1023C65.4739 19.1188 65.7788 19.1967 66.0605 19.3359C66.3456 19.4751 66.5759 19.674 66.7516 19.9325C66.9273 20.1911 67.0151 20.5109 67.0151 20.892C67.0151 21.3693 66.8659 21.7753 66.5676 22.1101C66.2727 22.4448 65.865 22.7 65.3446 22.8757C64.8243 23.0514 64.2277 23.1392 63.5549 23.1392C62.8986 23.1392 62.312 23.0514 61.7949 22.8757C61.2779 22.6967 60.8669 22.4266 60.562 22.0653C60.257 21.7008 60.0946 21.2434 60.0748 20.6932ZM70.2106 23.1193C69.7234 23.1193 69.2925 23.0398 68.918 22.8807C68.5468 22.7183 68.2551 22.473 68.043 22.1449C67.8308 21.8168 67.7248 21.3991 67.7248 20.892C67.7248 20.4744 67.796 20.1181 67.9386 19.8232C68.0811 19.5249 68.2799 19.2812 68.5352 19.0923C68.7904 18.9034 69.087 18.7592 69.4251 18.6598C69.7665 18.5604 70.1344 18.4957 70.5288 18.4659C70.9563 18.4328 71.2994 18.393 71.5579 18.3466C71.8197 18.2969 72.0086 18.2289 72.1246 18.1428C72.2406 18.0533 72.2987 17.9356 72.2987 17.7898V17.7699C72.2987 17.571 72.2224 17.4186 72.07 17.3125C71.9175 17.2064 71.7219 17.1534 71.4833 17.1534C71.2215 17.1534 71.0077 17.2114 70.842 17.3274C70.6796 17.4401 70.5818 17.6141 70.5487 17.8494H68.0231C68.0562 17.3854 68.2037 16.9579 68.4656 16.5668C68.7307 16.1723 69.1168 15.8575 69.6239 15.6222C70.131 15.3835 70.7641 15.2642 71.5231 15.2642C72.07 15.2642 72.5605 15.3288 72.9947 15.4581C73.4289 15.584 73.7984 15.7614 74.1033 15.9901C74.4083 16.2154 74.6403 16.4806 74.7994 16.7855C74.9618 17.0871 75.043 17.4152 75.043 17.7699V23H72.4776V21.9261H72.418C72.2655 22.2112 72.0799 22.4415 71.8612 22.6172C71.6457 22.7929 71.3988 22.9205 71.1204 23C70.8453 23.0795 70.542 23.1193 70.2106 23.1193ZM71.1055 21.3892C71.3143 21.3892 71.5098 21.3461 71.6921 21.2599C71.8777 21.1738 72.0285 21.0495 72.1445 20.8871C72.2605 20.7247 72.3185 20.5275 72.3185 20.2955V19.6591C72.2456 19.6889 72.1677 19.7171 72.0849 19.7436C72.0053 19.7701 71.9192 19.795 71.8263 19.8182C71.7369 19.8414 71.6407 19.8629 71.538 19.8828C71.4386 19.9027 71.3342 19.9209 71.2248 19.9375C71.0127 19.9706 70.8387 20.0253 70.7028 20.1016C70.5702 20.1745 70.4708 20.2656 70.4045 20.375C70.3415 20.4811 70.31 20.6004 70.31 20.733C70.31 20.9451 70.3846 21.1075 70.5337 21.2202C70.6829 21.3329 70.8735 21.3892 71.1055 21.3892ZM83.4735 15.3636V21.2898H84.786V25.446H82.1412V23H76.3542V15.3636H78.9395V20.9517H80.9281V15.3636H83.4735ZM88.3457 19.5L90.4735 15.3636H93.0588V23H90.4735V18.8438L88.3457 23H85.7605V15.3636H88.3457V19.5ZM98.8507 23V17.4119H97.8166C97.4719 17.4119 97.2183 17.4915 97.0559 17.6506C96.8935 17.8097 96.8156 17.9687 96.8223 18.1278C96.8156 18.2969 96.8985 18.456 97.0708 18.6051C97.2432 18.7509 97.5117 18.8239 97.8762 18.8239H99.8251V20.4744H97.8762C97.1305 20.4744 96.4842 20.37 95.9373 20.1612C95.3904 19.9524 94.9695 19.6641 94.6745 19.2962C94.3796 18.9283 94.2337 18.5057 94.237 18.0284C94.2337 17.5114 94.3762 17.0523 94.6646 16.6513C94.9563 16.2502 95.3706 15.9354 95.9075 15.7067C96.4477 15.478 97.0841 15.3636 97.8166 15.3636H101.396V23H98.8507ZM94.1575 23L96.2456 18.9034H98.7711L96.6831 23H94.1575Z" fill="black"/>
<defs>
<filter id="filter0_d_50_3958" x="0" y="0" width="107" height="44" filterUnits="userSpaceOnUse" color-interpolation-filters="sRGB">
<feFlood flood-opacity="0" result="BackgroundImageFix"/>
<feColorMatrix in="SourceAlpha" type="matrix" values="0 0 0 0 0 0 0 0 0 0 0 0 0 0 0 0 0 0 127 0" result="hardAlpha"/>
<feOffset dy="4"/>
<feGaussianBlur stdDeviation="2"/>
<feComposite in2="hardAlpha" operator="out"/>
<feColorMatrix type="matrix" values="0 0 0 0 0 0 0 0 0 0 0 0 0 0 0 0 0 0 0.25 0"/>
<feBlend mode="normal" in2="BackgroundImageFix" result="effect1_dropShadow_50_3958"/>
<feBlend mode="normal" in="SourceGraphic" in2="effect1_dropShadow_50_3958" result="shape"/>
</filter>
</defs>
</svg>
