<svg width="107" height="44" viewBox="0 0 107 44" fill="none" xmlns="http://www.w3.org/2000/svg">
<g filter="url(#filter0_d_49_4680)">
<path d="M4 0H103V36H4V0Z" fill="#D3D3D3"/>
</g>
<path d="M35.6442 13.8324H38.3686C39.2237 13.8324 39.9811 14.0064 40.6406 14.3544C41.3035 14.7024 41.8222 15.1963 42.1967 15.8359C42.5746 16.4756 42.7635 17.233 42.7635 18.108C42.7635 18.9366 42.5746 19.6541 42.1967 20.2607C41.8222 20.8672 41.3035 21.3362 40.6406 21.6676C39.9811 21.9991 39.2237 22.1648 38.3686 22.1648H35.6442C34.7824 22.1648 34.0185 22.0007 33.3523 21.6726C32.6894 21.3445 32.169 20.8755 31.7912 20.2656C31.4167 19.6558 31.2294 18.9299 31.2294 18.0881C31.2294 17.2131 31.42 16.4574 31.8011 15.821C32.1856 15.1847 32.7093 14.6941 33.3721 14.3494C34.0383 14.0047 34.7957 13.8324 35.6442 13.8324ZM35.6442 16.0994C35.2995 16.0994 34.9813 16.1641 34.6896 16.2933C34.4013 16.4226 34.1693 16.633 33.9936 16.9247C33.8212 17.2164 33.7351 17.6042 33.7351 18.0881C33.7351 18.5322 33.8246 18.8868 34.0035 19.152C34.1858 19.4171 34.4212 19.6077 34.7095 19.7237C35.0012 19.8397 35.3127 19.8977 35.6442 19.8977H38.3885C38.7266 19.8977 39.0348 19.8381 39.3132 19.7188C39.5949 19.5961 39.8186 19.4039 39.9844 19.142C40.1534 18.8769 40.2379 18.5322 40.2379 18.108C40.2379 17.6241 40.1534 17.2346 39.9844 16.9396C39.8186 16.6446 39.5949 16.4309 39.3132 16.2983C39.0348 16.1657 38.7266 16.0994 38.3885 16.0994H35.6442ZM38.2891 12.6392V23.4176H35.7038V12.6392H38.2891ZM46.6637 19.5L48.7915 15.3636H51.3768V23H48.7915V18.8438L46.6637 23H44.0785V15.3636H46.6637V19.5ZM52.4755 23L52.4556 20.9318H52.6942C52.8434 20.9318 52.9743 20.8887 53.087 20.8026C53.203 20.7164 53.3008 20.5838 53.3803 20.4048C53.4632 20.2259 53.5278 19.9988 53.5742 19.7237C53.6239 19.4486 53.6554 19.1222 53.6687 18.7443L53.788 15.3636H60.0721V23H57.4868V17.4119H56.2141L56.0948 19.4801C56.0617 20.1297 55.9689 20.6799 55.8164 21.1307C55.6672 21.5814 55.4684 21.9444 55.2198 22.2195C54.9712 22.4912 54.6829 22.6901 54.3547 22.8161C54.0266 22.9387 53.6654 23 53.2709 23H52.4755ZM62.9183 17.4318H65.2649C66.3553 17.4318 67.2138 17.6837 67.8402 18.1875C68.4666 18.688 68.7815 19.3774 68.7848 20.2557C68.7815 20.8224 68.6373 21.3113 68.3523 21.7223C68.0705 22.1333 67.6662 22.4498 67.1392 22.6719C66.6155 22.8906 65.9908 23 65.2649 23H61.3871V15.3636H63.9723V20.9517H65.2649C65.5466 20.9517 65.7786 20.8854 65.9609 20.7528C66.1432 20.617 66.236 20.4446 66.2393 20.2358C66.236 20.0137 66.1432 19.8331 65.9609 19.6939C65.7786 19.5514 65.5466 19.4801 65.2649 19.4801H62.9183V17.4318ZM68.7612 17.4119V15.3636H76.1589V17.4119H73.7328V23H71.1475V17.4119H68.7612ZM77.1781 25.8636V15.3636H79.9025V16.696H79.9622C80.0616 16.4375 80.2074 16.2005 80.3997 15.9851C80.5919 15.7663 80.8305 15.5923 81.1156 15.4631C81.4006 15.3305 81.7321 15.2642 82.1099 15.2642C82.6137 15.2642 83.0926 15.3984 83.5467 15.6669C84.0041 15.9354 84.3753 16.358 84.6603 16.9347C84.9487 17.5114 85.0929 18.2604 85.0929 19.1818C85.0929 20.0634 84.9553 20.7943 84.6802 21.3743C84.4084 21.9543 84.0438 22.3868 83.5865 22.6719C83.1324 22.9569 82.6336 23.0994 82.09 23.0994C81.7321 23.0994 81.4122 23.0414 81.1305 22.9254C80.8521 22.8061 80.6134 22.6454 80.4146 22.4432C80.219 22.2377 80.0682 22.0057 79.9622 21.7472H79.9224V25.8636H77.1781ZM79.8627 19.1818C79.8627 19.553 79.9108 19.8745 80.0069 20.1463C80.1063 20.4148 80.2456 20.6236 80.4245 20.7727C80.6068 20.9186 80.8239 20.9915 81.0758 20.9915C81.3277 20.9915 81.5415 20.9202 81.7171 20.7777C81.8961 20.6319 82.032 20.4247 82.1248 20.1562C82.2209 19.8845 82.269 19.5597 82.269 19.1818C82.269 18.804 82.2209 18.4808 82.1248 18.2124C82.032 17.9406 81.8961 17.7334 81.7171 17.5909C81.5415 17.4451 81.3277 17.3722 81.0758 17.3722C80.8239 17.3722 80.6068 17.4451 80.4245 17.5909C80.2456 17.7334 80.1063 17.9406 80.0069 18.2124C79.9108 18.4808 79.8627 18.804 79.8627 19.1818ZM87.7738 17.4318H90.1204C91.2108 17.4318 92.0692 17.6837 92.6957 18.1875C93.3221 18.688 93.6369 19.3774 93.6403 20.2557C93.6369 20.8224 93.4928 21.3113 93.2077 21.7223C92.926 22.1333 92.5217 22.4498 91.9947 22.6719C91.471 22.8906 90.8462 23 90.1204 23H86.2425V15.3636H88.8278V20.9517H90.1204C90.4021 20.9517 90.6341 20.8854 90.8164 20.7528C90.9987 20.617 91.0915 20.4446 91.0948 20.2358C91.0915 20.0137 90.9987 19.8331 90.8164 19.6939C90.6341 19.5514 90.4021 19.4801 90.1204 19.4801H87.7738V17.4318ZM94.1971 23V15.3636H96.9414V23H94.1971Z" fill="black"/>
<path d="M16.7612 22.3611C16.7612 24.5902 14.8299 26.4722 12.3524 26.4722C9.87481 26.4722 7.94354 24.5902 7.94354 22.3611C7.94354 20.132 9.87481 18.25 12.3524 18.25C14.8299 18.25 16.7612 20.132 16.7612 22.3611Z" stroke="black" stroke-width="1.5"/>
<rect width="2.12903" height="14" transform="matrix(-1 0 0 1 13.5806 4)" fill="black"/>
<rect width="2.12903" height="5" transform="matrix(-1 0 0 1 13.5806 26)" fill="black"/>
<path d="M16.4598 12.6389C16.4598 10.4098 18.391 8.52778 20.8686 8.52778C23.3461 8.52778 25.2774 10.4098 25.2774 12.6389C25.2774 14.868 23.3461 16.75 20.8686 16.75C18.391 16.75 16.4598 14.868 16.4598 12.6389Z" stroke="black" stroke-width="1.5"/>
<rect width="2.12903" height="14" transform="matrix(1 7.71472e-08 9.9067e-08 -1 19.6403 31)" fill="black"/>
<rect width="2.12903" height="5" transform="matrix(1 7.71472e-08 9.9067e-08 -1 19.6403 9)" fill="black"/>
<defs>
<filter id="filter0_d_49_4680" x="0" y="0" width="107" height="44" filterUnits="userSpaceOnUse" color-interpolation-filters="sRGB">
<feFlood flood-opacity="0" result="BackgroundImageFix"/>
<feColorMatrix in="SourceAlpha" type="matrix" values="0 0 0 0 0 0 0 0 0 0 0 0 0 0 0 0 0 0 127 0" result="hardAlpha"/>
<feOffset dy="4"/>
<feGaussianBlur stdDeviation="2"/>
<feComposite in2="hardAlpha" operator="out"/>
<feColorMatrix type="matrix" values="0 0 0 0 0 0 0 0 0 0 0 0 0 0 0 0 0 0 0.25 0"/>
<feBlend mode="normal" in2="BackgroundImageFix" result="effect1_dropShadow_49_4680"/>
<feBlend mode="normal" in="SourceGraphic" in2="effect1_dropShadow_49_4680" result="shape"/>
</filter>
</defs>
</svg>
