<svg width="165" height="48" viewBox="0 0 165 48" fill="none" xmlns="http://www.w3.org/2000/svg">
<path d="M61.1641 30L62.8544 19.8182H65.0071L63.6151 28.2251H67.9802L67.6819 30H61.1641ZM72.5279 30.1491C71.7457 30.1491 71.0978 29.9901 70.584 29.6719C70.0703 29.3504 69.709 28.8963 69.5002 28.3097C69.2947 27.7197 69.2599 27.022 69.3958 26.2166C69.5284 25.4311 69.7952 24.7417 70.1962 24.1484C70.6006 23.5552 71.1077 23.0928 71.7176 22.7614C72.3274 22.4299 73.0069 22.2642 73.7559 22.2642C74.2597 22.2642 74.7154 22.3454 75.1231 22.5078C75.5341 22.6669 75.8755 22.9089 76.1472 23.2337C76.419 23.5552 76.6046 23.9579 76.7041 24.4418C76.8068 24.9257 76.8051 25.4924 76.6991 26.142L76.6046 26.7237H70.1614L70.3653 25.4112H74.8198C74.8695 25.1063 74.8497 24.8362 74.7602 24.6009C74.6707 24.3655 74.5215 24.1816 74.3127 24.049C74.1039 23.9131 73.847 23.8452 73.5421 23.8452C73.2306 23.8452 72.9389 23.9214 72.6671 24.0739C72.3953 24.2263 72.1667 24.4268 71.981 24.6754C71.7988 24.9207 71.6811 25.1875 71.6281 25.4759L71.3944 26.7784C71.3281 27.1795 71.3414 27.5125 71.4342 27.7777C71.5303 28.0429 71.696 28.2417 71.9313 28.3743C72.1667 28.5036 72.4649 28.5682 72.8262 28.5682C73.0615 28.5682 73.2819 28.535 73.4874 28.4688C73.6962 28.4025 73.8819 28.3047 74.0443 28.1754C74.2067 28.0429 74.3392 27.8788 74.442 27.6832L76.3759 27.8125C76.197 28.2831 75.9252 28.6941 75.5606 29.0455C75.196 29.3935 74.7569 29.6652 74.2431 29.8608C73.7327 30.053 73.161 30.1491 72.5279 30.1491ZM77.4486 30L78.7213 22.3636H80.8392L79.5665 30H77.4486ZM79.999 21.3693C79.6841 21.3693 79.4239 21.2649 79.2184 21.0561C79.0163 20.844 78.9334 20.5921 78.9699 20.3004C79.0063 20.0021 79.1488 19.7502 79.3974 19.5447C79.646 19.3359 79.9277 19.2315 80.2426 19.2315C80.5575 19.2315 80.8143 19.3359 81.0132 19.5447C81.212 19.7502 81.2949 20.0021 81.2618 20.3004C81.2286 20.5921 81.0878 20.844 80.8392 21.0561C80.5939 21.2649 80.3138 21.3693 79.999 21.3693ZM88.5166 24.5412L86.5926 24.6605C86.5826 24.4915 86.5362 24.3407 86.4533 24.2081C86.3738 24.0722 86.2561 23.9645 86.1004 23.8849C85.9479 23.8054 85.7557 23.7656 85.5237 23.7656C85.1756 23.7656 84.8658 23.8452 84.594 24.0043C84.3222 24.1634 84.1681 24.3672 84.1316 24.6158C84.1018 24.7749 84.1432 24.9091 84.2559 25.0185C84.3686 25.1278 84.5956 25.2206 84.937 25.2969L86.2793 25.5753C86.9953 25.7277 87.5123 25.9813 87.8305 26.3359C88.152 26.6906 88.2663 27.1546 88.1735 27.728C88.0907 28.2152 87.8769 28.6411 87.5322 29.0057C87.1875 29.367 86.75 29.6487 86.2197 29.8509C85.6894 30.0497 85.1011 30.1491 84.4548 30.1491C83.4174 30.1491 82.6285 29.937 82.0883 29.5128C81.548 29.0885 81.2879 28.5135 81.3078 27.7876L83.3759 27.6783C83.3925 27.9898 83.5019 28.2251 83.7041 28.3842C83.9062 28.54 84.183 28.6196 84.5343 28.6229C84.9287 28.6295 85.2635 28.5483 85.5386 28.3793C85.817 28.2069 85.9744 27.9981 86.0109 27.7528C86.0374 27.5805 85.9877 27.4413 85.8617 27.3352C85.7391 27.2292 85.5137 27.1413 85.1856 27.0717L83.9129 26.8082C83.1903 26.6591 82.6716 26.3923 82.3568 26.0078C82.0419 25.6233 81.9342 25.1345 82.0336 24.5412C82.1131 24.0672 82.3104 23.6612 82.6252 23.3232C82.9434 22.9818 83.3527 22.7199 83.8532 22.5376C84.357 22.3554 84.9254 22.2642 85.5585 22.2642C86.5495 22.2642 87.2952 22.468 87.7957 22.8757C88.2995 23.2834 88.5398 23.8385 88.5166 24.5412ZM94.5633 26.7486L95.2941 22.3636H97.412L96.1392 30H94.1059L94.3346 28.6129H94.255C94.0197 29.0604 93.6767 29.42 93.2259 29.6918C92.7751 29.9635 92.2631 30.0994 91.6897 30.0994C91.1793 30.0994 90.7484 29.9834 90.3971 29.7514C90.0491 29.5194 89.8021 29.1896 89.6563 28.7621C89.5105 28.3345 89.4856 27.8224 89.5817 27.2259L90.3971 22.3636H92.515L91.7692 26.848C91.6996 27.2988 91.7626 27.6551 91.9581 27.9169C92.1537 28.1787 92.452 28.3097 92.853 28.3097C93.1082 28.3097 93.3552 28.2517 93.5938 28.1357C93.8357 28.0163 94.0446 27.8407 94.2202 27.6087C94.3959 27.3767 94.5102 27.09 94.5633 26.7486ZM97.8333 30L99.106 22.3636H101.159L100.936 23.696H101.015C101.234 23.2221 101.527 22.8641 101.895 22.6222C102.266 22.3769 102.666 22.2543 103.093 22.2543C103.199 22.2543 103.31 22.2609 103.426 22.2741C103.546 22.2841 103.652 22.3007 103.745 22.3239L103.426 24.2081C103.334 24.175 103.201 24.1484 103.029 24.1286C102.86 24.1054 102.699 24.0938 102.546 24.0938C102.238 24.0938 101.951 24.1617 101.686 24.2976C101.421 24.4302 101.197 24.6158 101.015 24.8544C100.836 25.093 100.718 25.3681 100.662 25.6797L99.9512 30H97.8333ZM106.667 30.1491C105.884 30.1491 105.236 29.9901 104.723 29.6719C104.209 29.3504 103.848 28.8963 103.639 28.3097C103.433 27.7197 103.399 27.022 103.534 26.2166C103.667 25.4311 103.934 24.7417 104.335 24.1484C104.739 23.5552 105.246 23.0928 105.856 22.7614C106.466 22.4299 107.146 22.2642 107.895 22.2642C108.398 22.2642 108.854 22.3454 109.262 22.5078C109.673 22.6669 110.014 22.9089 110.286 23.2337C110.558 23.5552 110.743 23.9579 110.843 24.4418C110.945 24.9257 110.944 25.4924 110.838 26.142L110.743 26.7237H104.3L104.504 25.4112H108.958C109.008 25.1063 108.988 24.8362 108.899 24.6009C108.809 24.3655 108.66 24.1816 108.451 24.049C108.243 23.9131 107.986 23.8452 107.681 23.8452C107.369 23.8452 107.078 23.9214 106.806 24.0739C106.534 24.2263 106.305 24.4268 106.12 24.6754C105.937 24.9207 105.82 25.1875 105.767 25.4759L105.533 26.7784C105.467 27.1795 105.48 27.5125 105.573 27.7777C105.669 28.0429 105.835 28.2417 106.07 28.3743C106.305 28.5036 106.604 28.5682 106.965 28.5682C107.2 28.5682 107.421 28.535 107.626 28.4688C107.835 28.4025 108.021 28.3047 108.183 28.1754C108.345 28.0429 108.478 27.8788 108.581 27.6832L110.515 27.8125C110.336 28.2831 110.064 28.6941 109.699 29.0455C109.335 29.3935 108.896 29.6652 108.382 29.8608C107.871 30.053 107.3 30.1491 106.667 30.1491ZM113.382 30H111.075L116.28 19.8182H119.055L120.874 30H118.567L117.329 22.1449H117.25L113.382 30ZM113.909 25.9979H119.358L119.069 27.6783H113.621L113.909 25.9979ZM127.307 22.3636L127.044 23.9545H122.331L122.594 22.3636H127.307ZM122.395 30L123.763 21.8118C123.852 21.2583 124.034 20.7992 124.31 20.4347C124.588 20.0701 124.931 19.7966 125.339 19.6143C125.75 19.4321 126.194 19.3409 126.671 19.3409C126.996 19.3409 127.289 19.3658 127.551 19.4155C127.816 19.4652 128.008 19.5099 128.128 19.5497L127.496 21.1406C127.417 21.1141 127.319 21.0893 127.203 21.0661C127.087 21.0429 126.964 21.0312 126.835 21.0312C126.527 21.0312 126.3 21.1042 126.154 21.25C126.011 21.3925 125.915 21.593 125.866 21.8516L124.508 30H122.395ZM127.324 30L128.596 22.3636H130.714L129.441 30H127.324ZM129.874 21.3693C129.559 21.3693 129.299 21.2649 129.093 21.0561C128.891 20.844 128.808 20.5921 128.845 20.3004C128.881 20.0021 129.024 19.7502 129.272 19.5447C129.521 19.3359 129.803 19.2315 130.118 19.2315C130.432 19.2315 130.689 19.3359 130.888 19.5447C131.087 19.7502 131.17 20.0021 131.137 20.3004C131.104 20.5921 130.963 20.844 130.714 21.0561C130.469 21.2649 130.189 21.3693 129.874 21.3693ZM138.392 24.5412L136.468 24.6605C136.458 24.4915 136.411 24.3407 136.328 24.2081C136.249 24.0722 136.131 23.9645 135.975 23.8849C135.823 23.8054 135.631 23.7656 135.399 23.7656C135.051 23.7656 134.741 23.8452 134.469 24.0043C134.197 24.1634 134.043 24.3672 134.007 24.6158C133.977 24.7749 134.018 24.9091 134.131 25.0185C134.244 25.1278 134.471 25.2206 134.812 25.2969L136.154 25.5753C136.87 25.7277 137.387 25.9813 137.705 26.3359C138.027 26.6906 138.141 27.1546 138.049 27.728C137.966 28.2152 137.752 28.6411 137.407 29.0057C137.062 29.367 136.625 29.6487 136.095 29.8509C135.564 30.0497 134.976 30.1491 134.33 30.1491C133.292 30.1491 132.504 29.937 131.963 29.5128C131.423 29.0885 131.163 28.5135 131.183 27.7876L133.251 27.6783C133.268 27.9898 133.377 28.2251 133.579 28.3842C133.781 28.54 134.058 28.6196 134.409 28.6229C134.804 28.6295 135.138 28.5483 135.414 28.3793C135.692 28.2069 135.849 27.9981 135.886 27.7528C135.912 27.5805 135.863 27.4413 135.737 27.3352C135.614 27.2292 135.389 27.1413 135.061 27.0717L133.788 26.8082C133.065 26.6591 132.547 26.3923 132.232 26.0078C131.917 25.6233 131.809 25.1345 131.909 24.5412C131.988 24.0672 132.185 23.6612 132.5 23.3232C132.818 22.9818 133.228 22.7199 133.728 22.5376C134.232 22.3554 134.8 22.2642 135.433 22.2642C136.424 22.2642 137.17 22.468 137.671 22.8757C138.174 23.2834 138.415 23.8385 138.392 24.5412ZM141.863 25.5852L141.127 30H139.014L140.705 19.8182H142.758L142.121 23.7109H142.206C142.451 23.2602 142.788 22.9072 143.215 22.652C143.643 22.3935 144.148 22.2642 144.732 22.2642C145.262 22.2642 145.704 22.3802 146.059 22.6122C146.417 22.8409 146.67 23.1707 146.82 23.6016C146.969 24.0291 146.994 24.5412 146.894 25.1378L146.079 30H143.966L144.712 25.5156C144.788 25.045 144.727 24.6787 144.528 24.4169C144.332 24.1551 144.021 24.0241 143.593 24.0241C143.305 24.0241 143.04 24.0855 142.798 24.2081C142.556 24.3307 142.352 24.5097 142.186 24.745C142.024 24.977 141.916 25.2571 141.863 25.5852ZM149.893 30.1442C149.409 30.1442 148.99 30.0597 148.636 29.8906C148.284 29.7183 148.026 29.4631 147.86 29.125C147.694 28.7869 147.653 28.3677 147.736 27.8672C147.809 27.4429 147.946 27.0883 148.148 26.8033C148.354 26.5149 148.604 26.2829 148.899 26.1072C149.194 25.9316 149.52 25.7973 149.878 25.7045C150.24 25.6117 150.613 25.5488 150.997 25.5156C151.441 25.4692 151.802 25.4245 152.081 25.3814C152.363 25.3383 152.573 25.277 152.712 25.1974C152.851 25.1146 152.936 24.992 152.966 24.8295V24.7997C153.015 24.4882 152.957 24.2462 152.792 24.0739C152.629 23.8982 152.369 23.8104 152.011 23.8104C151.633 23.8104 151.312 23.8932 151.047 24.0589C150.785 24.2247 150.598 24.4351 150.485 24.6903L148.556 24.5312C148.728 24.0672 148.989 23.6662 149.337 23.3281C149.688 22.9867 150.11 22.7249 150.604 22.5426C151.098 22.357 151.652 22.2642 152.265 22.2642C152.689 22.2642 153.085 22.3139 153.453 22.4134C153.824 22.5128 154.144 22.6669 154.413 22.8757C154.684 23.0845 154.88 23.353 154.999 23.6811C155.122 24.0059 155.147 24.3954 155.074 24.8494L154.214 30H152.205L152.384 28.9411H152.324C152.162 29.1797 151.963 29.3902 151.728 29.5724C151.493 29.7514 151.222 29.8923 150.917 29.995C150.613 30.0945 150.271 30.1442 149.893 30.1442ZM150.743 28.6825C151.052 28.6825 151.335 28.6212 151.594 28.4986C151.855 28.3726 152.071 28.2036 152.24 27.9915C152.412 27.7794 152.522 27.5391 152.568 27.2706L152.697 26.4602C152.631 26.5033 152.535 26.5414 152.409 26.5746C152.286 26.6077 152.152 26.6392 152.006 26.669C151.864 26.6955 151.72 26.7204 151.574 26.7436C151.428 26.7635 151.297 26.7834 151.181 26.8033C150.926 26.8397 150.697 26.8977 150.495 26.9773C150.293 27.0568 150.129 27.1645 150.003 27.3004C149.877 27.433 149.799 27.5987 149.769 27.7976C149.723 28.0859 149.791 28.3063 149.973 28.4588C150.158 28.608 150.415 28.6825 150.743 28.6825Z" fill="black"/>
<ellipse cx="25.4647" cy="24" rx="25.4647" ry="24" fill="#D3D3D3"/>
<mask id="mask0_49_4692" style="mask-type:alpha" maskUnits="userSpaceOnUse" x="0" y="0" width="51" height="48">
<ellipse cx="25.4647" cy="24" rx="25.4647" ry="24" fill="#CCEEFB"/>
</mask>
<g mask="url(#mask0_49_4692)">
<path d="M34.3021 1.32996L40.252 2.79491L6.57713 45.7971L5.40064 40.6559L34.3021 1.32996Z" fill="black"/>
<path d="M39.7243 4.36985L34.8753 0.21072L19.9144 51.4759L24.884 49.6759L39.7243 4.36985Z" fill="black"/>
<rect width="34.4673" height="4.3232" transform="matrix(0.903919 0.427704 -0.413471 0.910518 8.25836 21.0929)" fill="black"/>
</g>
</svg>
