<svg width="145" height="32" viewBox="0 0 145 32" fill="none" xmlns="http://www.w3.org/2000/svg">
<g filter="url(#filter0_d_127_3159)">
<path d="M8.78787 0H134.747V24H8.78787V0Z" fill="#D3D3D3"/>
</g>
<path d="M42.459 11.7273C42.459 13.3134 42.1583 14.6629 41.557 15.7756C40.9604 16.8883 40.146 17.7382 39.1138 18.3253C38.0863 18.9077 36.931 19.1989 35.6479 19.1989C34.3553 19.1989 33.1952 18.9053 32.1678 18.3182C31.1403 17.7311 30.3283 16.8812 29.7317 15.7685C29.1351 14.6558 28.8368 13.3087 28.8368 11.7273C28.8368 10.1411 29.1351 8.79167 29.7317 7.67898C30.3283 6.56629 31.1403 5.71875 32.1678 5.13636C33.1952 4.54924 34.3553 4.25568 35.6479 4.25568C36.931 4.25568 38.0863 4.54924 39.1138 5.13636C40.146 5.71875 40.9604 6.56629 41.557 7.67898C42.1583 8.79167 42.459 10.1411 42.459 11.7273ZM39.3411 11.7273C39.3411 10.6998 39.1872 9.83333 38.8794 9.12784C38.5764 8.42235 38.1479 7.88731 37.5939 7.52273C37.0399 7.15814 36.3913 6.97585 35.6479 6.97585C34.9045 6.97585 34.2558 7.15814 33.7019 7.52273C33.1479 7.88731 32.717 8.42235 32.4092 9.12784C32.1062 9.83333 31.9547 10.6998 31.9547 11.7273C31.9547 12.7547 32.1062 13.6212 32.4092 14.3267C32.717 15.0322 33.1479 15.5672 33.7019 15.9318C34.2558 16.2964 34.9045 16.4787 35.6479 16.4787C36.3913 16.4787 37.0399 16.2964 37.5939 15.9318C38.1479 15.5672 38.5764 15.0322 38.8794 14.3267C39.1872 13.6212 39.3411 12.7547 39.3411 11.7273ZM44.112 10.4702V8.09091H53.9984V10.4702H50.4828V19H47.5992V10.4702H44.112ZM55.8325 19V8.09091H58.8581V12.3239H59.7104L62.6791 8.09091H66.2303L62.3737 13.5028L66.2729 19H62.6791L59.9874 15.1293H58.8581V19H55.8325ZM67.5513 23.0909V8.09091H70.5342V9.9233H70.6692C70.8018 9.62973 70.9935 9.33144 71.2445 9.02841C71.5002 8.72064 71.8316 8.46496 72.2388 8.26136C72.6507 8.05303 73.1621 7.94886 73.7729 7.94886C74.5683 7.94886 75.3022 8.1572 75.9746 8.57386C76.6469 8.9858 77.1843 9.60843 77.5868 10.4418C77.9893 11.2704 78.1905 12.3097 78.1905 13.5597C78.1905 14.7765 77.994 15.804 77.601 16.642C77.2127 17.4754 76.6824 18.1075 76.0101 18.5384C75.3425 18.9645 74.5944 19.1776 73.7658 19.1776C73.1787 19.1776 72.6791 19.0805 72.2672 18.8864C71.86 18.6922 71.5262 18.4484 71.2658 18.1548C71.0054 17.8565 70.8065 17.5559 70.6692 17.2528H70.5769V23.0909H67.5513ZM70.5129 13.5455C70.5129 14.1941 70.6029 14.7599 70.7828 15.2429C70.9627 15.7259 71.2232 16.1023 71.5641 16.3722C71.905 16.6373 72.3193 16.7699 72.807 16.7699C73.2994 16.7699 73.7161 16.6349 74.057 16.3651C74.3979 16.0904 74.6559 15.7116 74.8311 15.2287C75.011 14.741 75.101 14.1799 75.101 13.5455C75.101 12.9157 75.0134 12.3617 74.8382 11.8835C74.663 11.4053 74.405 11.0312 74.0641 10.7614C73.7232 10.4915 73.3041 10.3565 72.807 10.3565C72.3145 10.3565 71.8979 10.4867 71.557 10.7472C71.2208 11.0076 70.9627 11.3769 70.7828 11.8551C70.6029 12.3333 70.5129 12.8968 70.5129 13.5455ZM82.1038 11.4432H85.3638C86.8079 11.4432 87.9348 11.7888 88.7445 12.4801C89.5541 13.1667 89.959 14.0852 89.959 15.2358C89.959 15.9839 89.7767 16.642 89.4121 17.2102C89.0475 17.7737 88.5219 18.214 87.8354 18.5312C87.1488 18.8438 86.325 19 85.3638 19H80.2075V8.09091H83.0982V16.6207H85.3638C85.8704 16.6207 86.2871 16.4929 86.6138 16.2372C86.9405 15.9815 87.1062 15.6548 87.1109 15.2571C87.1062 14.8357 86.9405 14.4924 86.6138 14.2273C86.2871 13.9574 85.8704 13.8224 85.3638 13.8224H82.1038V11.4432ZM91.1308 19V8.09091H94.1564V19H91.1308ZM96.0065 10.4702V8.09091H105.893V10.4702H102.377V19H99.4938V10.4702H96.0065ZM109.623 11.4432H112.883C114.327 11.4432 115.454 11.7888 116.264 12.4801C117.074 13.1667 117.478 14.0852 117.478 15.2358C117.478 15.9839 117.296 16.642 116.932 17.2102C116.567 17.7737 116.041 18.214 115.355 18.5312C114.668 18.8438 113.844 19 112.883 19H107.727V8.09091H110.618V16.6207H112.883C113.39 16.6207 113.807 16.4929 114.133 16.2372C114.46 15.9815 114.626 15.6548 114.63 15.2571C114.626 14.8357 114.46 14.4924 114.133 14.2273C113.807 13.9574 113.39 13.8224 112.883 13.8224H109.623V11.4432Z" fill="black"/>
<defs>
<filter id="filter0_d_127_3159" x="4.78787" y="0" width="133.96" height="32" filterUnits="userSpaceOnUse" color-interpolation-filters="sRGB">
<feFlood flood-opacity="0" result="BackgroundImageFix"/>
<feColorMatrix in="SourceAlpha" type="matrix" values="0 0 0 0 0 0 0 0 0 0 0 0 0 0 0 0 0 0 127 0" result="hardAlpha"/>
<feOffset dy="4"/>
<feGaussianBlur stdDeviation="2"/>
<feComposite in2="hardAlpha" operator="out"/>
<feColorMatrix type="matrix" values="0 0 0 0 0 0 0 0 0 0 0 0 0 0 0 0 0 0 0.25 0"/>
<feBlend mode="normal" in2="BackgroundImageFix" result="effect1_dropShadow_127_3159"/>
<feBlend mode="normal" in="SourceGraphic" in2="effect1_dropShadow_127_3159" result="shape"/>
</filter>
</defs>
</svg>
