<svg width="150" height="24" viewBox="0 0 150 24" fill="none" xmlns="http://www.w3.org/2000/svg">
<path d="M35.088 17.16C34.4693 17.16 33.8987 17.0853 33.376 16.936C32.864 16.776 32.4213 16.552 32.048 16.264C31.6853 15.9653 31.4027 15.608 31.2 15.192C30.9973 14.776 30.896 14.3067 30.896 13.784C30.896 13.1333 31.0507 12.5733 31.36 12.104C31.68 11.6347 32.1013 11.2773 32.624 11.032C32.208 10.7867 31.8827 10.4667 31.648 10.072C31.4133 9.67733 31.296 9.208 31.296 8.664C31.296 8.024 31.4507 7.48533 31.76 7.048C32.08 6.6 32.5227 6.25333 33.088 6.008C33.664 5.76267 34.3307 5.64 35.088 5.64C35.8347 5.64 36.4907 5.76267 37.056 6.008C37.632 6.24267 38.0747 6.584 38.384 7.032C38.704 7.48 38.864 8.01867 38.864 8.648C38.864 9.192 38.7467 9.66667 38.512 10.072C38.2773 10.4667 37.9573 10.7867 37.552 11.032C38.0747 11.2773 38.4907 11.6347 38.8 12.104C39.12 12.5733 39.28 13.1333 39.28 13.784C39.28 14.4773 39.104 15.08 38.752 15.592C38.4 16.0933 37.9093 16.4827 37.28 16.76C36.6507 17.0267 35.92 17.16 35.088 17.16ZM35.088 15.88C35.5787 15.88 36.0213 15.7947 36.416 15.624C36.8107 15.4533 37.1253 15.2133 37.36 14.904C37.5947 14.584 37.712 14.2107 37.712 13.784C37.712 13.3467 37.5947 12.9787 37.36 12.68C37.1253 12.3707 36.8107 12.136 36.416 11.976C36.0213 11.8053 35.5787 11.72 35.088 11.72C34.5973 11.72 34.1493 11.8053 33.744 11.976C33.3493 12.136 33.0347 12.3707 32.8 12.68C32.5653 12.9787 32.448 13.3467 32.448 13.784C32.448 14.2107 32.5653 14.584 32.8 14.904C33.0347 15.2133 33.3493 15.4533 33.744 15.624C34.1493 15.7947 34.5973 15.88 35.088 15.88ZM35.088 10.456C35.4933 10.456 35.8667 10.3813 36.208 10.232C36.56 10.0827 36.8373 9.88 37.04 9.624C37.2533 9.368 37.36 9.05867 37.36 8.696C37.36 8.33333 37.2587 8.01867 37.056 7.752C36.864 7.48533 36.592 7.28267 36.24 7.144C35.8987 6.99467 35.5147 6.92 35.088 6.92C34.6613 6.92 34.272 6.99467 33.92 7.144C33.5787 7.28267 33.3067 7.48533 33.104 7.752C32.9013 8.01867 32.8 8.33333 32.8 8.696C32.8 9.06933 32.9013 9.38933 33.104 9.656C33.3067 9.912 33.5787 10.1093 33.92 10.248C34.272 10.3867 34.6613 10.456 35.088 10.456ZM49.1818 17.16C48.5631 17.16 47.9924 17.0853 47.4698 16.936C46.9578 16.776 46.5151 16.552 46.1418 16.264C45.7791 15.9653 45.4964 15.608 45.2938 15.192C45.0911 14.776 44.9898 14.3067 44.9898 13.784C44.9898 13.1333 45.1444 12.5733 45.4538 12.104C45.7738 11.6347 46.1951 11.2773 46.7178 11.032C46.3018 10.7867 45.9764 10.4667 45.7418 10.072C45.5071 9.67733 45.3898 9.208 45.3898 8.664C45.3898 8.024 45.5444 7.48533 45.8538 7.048C46.1738 6.6 46.6164 6.25333 47.1818 6.008C47.7578 5.76267 48.4244 5.64 49.1818 5.64C49.9284 5.64 50.5844 5.76267 51.1498 6.008C51.7258 6.24267 52.1684 6.584 52.4778 7.032C52.7978 7.48 52.9578 8.01867 52.9578 8.648C52.9578 9.192 52.8404 9.66667 52.6058 10.072C52.3711 10.4667 52.0511 10.7867 51.6458 11.032C52.1684 11.2773 52.5844 11.6347 52.8938 12.104C53.2138 12.5733 53.3738 13.1333 53.3738 13.784C53.3738 14.4773 53.1978 15.08 52.8458 15.592C52.4938 16.0933 52.0031 16.4827 51.3738 16.76C50.7444 17.0267 50.0138 17.16 49.1818 17.16ZM49.1818 15.88C49.6724 15.88 50.1151 15.7947 50.5098 15.624C50.9044 15.4533 51.2191 15.2133 51.4538 14.904C51.6884 14.584 51.8058 14.2107 51.8058 13.784C51.8058 13.3467 51.6884 12.9787 51.4538 12.68C51.2191 12.3707 50.9044 12.136 50.5098 11.976C50.1151 11.8053 49.6724 11.72 49.1818 11.72C48.6911 11.72 48.2431 11.8053 47.8378 11.976C47.4431 12.136 47.1284 12.3707 46.8938 12.68C46.6591 12.9787 46.5418 13.3467 46.5418 13.784C46.5418 14.2107 46.6591 14.584 46.8938 14.904C47.1284 15.2133 47.4431 15.4533 47.8378 15.624C48.2431 15.7947 48.6911 15.88 49.1818 15.88ZM49.1818 10.456C49.5871 10.456 49.9604 10.3813 50.3018 10.232C50.6538 10.0827 50.9311 9.88 51.1338 9.624C51.3471 9.368 51.4538 9.05867 51.4538 8.696C51.4538 8.33333 51.3524 8.01867 51.1498 7.752C50.9578 7.48533 50.6858 7.28267 50.3338 7.144C49.9924 6.99467 49.6084 6.92 49.1818 6.92C48.7551 6.92 48.3658 6.99467 48.0138 7.144C47.6724 7.28267 47.4004 7.48533 47.1978 7.752C46.9951 8.01867 46.8938 8.33333 46.8938 8.696C46.8938 9.06933 46.9951 9.38933 47.1978 9.656C47.4004 9.912 47.6724 10.1093 48.0138 10.248C48.3658 10.3867 48.7551 10.456 49.1818 10.456ZM59.3376 17.16C58.6016 17.16 57.9776 17.048 57.4656 16.824C56.9643 16.5893 56.5536 16.2693 56.2336 15.864C55.9136 15.4587 55.679 14.9947 55.5296 14.472C55.391 13.9493 55.311 13.3947 55.2896 12.808C55.279 12.52 55.2683 12.216 55.2576 11.896C55.2576 11.576 55.2576 11.256 55.2576 10.936C55.2683 10.6053 55.279 10.2907 55.2896 9.992C55.3003 9.40533 55.3803 8.85067 55.5296 8.328C55.6896 7.79467 55.9243 7.33067 56.2336 6.936C56.5536 6.53067 56.9696 6.216 57.4816 5.992C57.9936 5.75733 58.6123 5.64 59.3376 5.64C60.0736 5.64 60.6923 5.75733 61.1936 5.992C61.7056 6.216 62.1216 6.53067 62.4416 6.936C62.7616 7.33067 62.9963 7.79467 63.1456 8.328C63.3056 8.85067 63.391 9.40533 63.4016 9.992C63.4123 10.2907 63.4176 10.6053 63.4176 10.936C63.4283 11.256 63.4283 11.576 63.4176 11.896C63.4176 12.216 63.4123 12.52 63.4016 12.808C63.391 13.3947 63.3056 13.9493 63.1456 14.472C62.9963 14.9947 62.7616 15.4587 62.4416 15.864C62.1323 16.2693 61.7216 16.5893 61.2096 16.824C60.7083 17.048 60.0843 17.16 59.3376 17.16ZM59.3376 15.8C60.1696 15.8 60.783 15.528 61.1776 14.984C61.583 14.4293 61.791 13.6773 61.8016 12.728C61.823 12.4187 61.8336 12.12 61.8336 11.832C61.8336 11.5333 61.8336 11.24 61.8336 10.952C61.8336 10.6533 61.823 10.36 61.8016 10.072C61.791 9.144 61.583 8.40267 61.1776 7.848C60.783 7.28267 60.1696 7 59.3376 7C58.5163 7 57.903 7.28267 57.4976 7.848C57.103 8.40267 56.895 9.144 56.8736 10.072C56.8736 10.36 56.8683 10.6533 56.8576 10.952C56.8576 11.24 56.8576 11.5333 56.8576 11.832C56.8683 12.12 56.8736 12.4187 56.8736 12.728C56.895 13.6773 57.1083 14.4293 57.5136 14.984C57.919 15.528 58.527 15.8 59.3376 15.8ZM69.4939 17.16C68.7579 17.16 68.1339 17.048 67.6219 16.824C67.1205 16.5893 66.7099 16.2693 66.3899 15.864C66.0699 15.4587 65.8352 14.9947 65.6859 14.472C65.5472 13.9493 65.4672 13.3947 65.4459 12.808C65.4352 12.52 65.4245 12.216 65.4139 11.896C65.4139 11.576 65.4139 11.256 65.4139 10.936C65.4245 10.6053 65.4352 10.2907 65.4459 9.992C65.4565 9.40533 65.5365 8.85067 65.6859 8.328C65.8459 7.79467 66.0805 7.33067 66.3899 6.936C66.7099 6.53067 67.1259 6.216 67.6379 5.992C68.1499 5.75733 68.7685 5.64 69.4939 5.64C70.2299 5.64 70.8485 5.75733 71.3499 5.992C71.8619 6.216 72.2779 6.53067 72.5979 6.936C72.9179 7.33067 73.1525 7.79467 73.3019 8.328C73.4619 8.85067 73.5472 9.40533 73.5579 9.992C73.5685 10.2907 73.5739 10.6053 73.5739 10.936C73.5845 11.256 73.5845 11.576 73.5739 11.896C73.5739 12.216 73.5685 12.52 73.5579 12.808C73.5472 13.3947 73.4619 13.9493 73.3019 14.472C73.1525 14.9947 72.9179 15.4587 72.5979 15.864C72.2885 16.2693 71.8779 16.5893 71.3659 16.824C70.8645 17.048 70.2405 17.16 69.4939 17.16ZM69.4939 15.8C70.3259 15.8 70.9392 15.528 71.3339 14.984C71.7392 14.4293 71.9472 13.6773 71.9579 12.728C71.9792 12.4187 71.9899 12.12 71.9899 11.832C71.9899 11.5333 71.9899 11.24 71.9899 10.952C71.9899 10.6533 71.9792 10.36 71.9579 10.072C71.9472 9.144 71.7392 8.40267 71.3339 7.848C70.9392 7.28267 70.3259 7 69.4939 7C68.6725 7 68.0592 7.28267 67.6539 7.848C67.2592 8.40267 67.0512 9.144 67.0299 10.072C67.0299 10.36 67.0245 10.6533 67.0139 10.952C67.0139 11.24 67.0139 11.5333 67.0139 11.832C67.0245 12.12 67.0299 12.4187 67.0299 12.728C67.0512 13.6773 67.2645 14.4293 67.6699 14.984C68.0752 15.528 68.6832 15.8 69.4939 15.8ZM80.884 17C80.788 17 80.708 16.968 80.644 16.904C80.5907 16.8293 80.564 16.744 80.564 16.648C80.564 16.616 80.5747 16.568 80.596 16.504L84.58 7.192H79.332C79.2253 7.192 79.1347 7.16 79.06 7.096C78.996 7.02133 78.964 6.93067 78.964 6.824V6.184C78.964 6.06667 78.996 5.976 79.06 5.912C79.1347 5.83733 79.2253 5.8 79.332 5.8H85.892C86.0093 5.8 86.1 5.83733 86.164 5.912C86.2387 5.976 86.276 6.06667 86.276 6.184V6.776C86.276 6.91467 86.2653 7.02667 86.244 7.112C86.2227 7.19733 86.1907 7.29333 86.148 7.4L82.196 16.6C82.164 16.6853 82.1107 16.776 82.036 16.872C81.972 16.9573 81.876 17 81.748 17H80.884ZM89.0871 17C88.9911 17 88.9111 16.968 88.8471 16.904C88.7938 16.8293 88.7671 16.744 88.7671 16.648C88.7671 16.616 88.7778 16.568 88.7991 16.504L92.7831 7.192H87.5351C87.4285 7.192 87.3378 7.16 87.2631 7.096C87.1991 7.02133 87.1671 6.93067 87.1671 6.824V6.184C87.1671 6.06667 87.1991 5.976 87.2631 5.912C87.3378 5.83733 87.4285 5.8 87.5351 5.8H94.0951C94.2125 5.8 94.3031 5.83733 94.3671 5.912C94.4418 5.976 94.4791 6.06667 94.4791 6.184V6.776C94.4791 6.91467 94.4685 7.02667 94.4471 7.112C94.4258 7.19733 94.3938 7.29333 94.3511 7.4L90.3991 16.6C90.3671 16.6853 90.3138 16.776 90.2391 16.872C90.1751 16.9573 90.0791 17 89.9511 17H89.0871ZM97.2903 17C97.1943 17 97.1143 16.968 97.0503 16.904C96.9969 16.8293 96.9703 16.744 96.9703 16.648C96.9703 16.616 96.9809 16.568 97.0023 16.504L100.986 7.192H95.7383C95.6316 7.192 95.5409 7.16 95.4663 7.096C95.4023 7.02133 95.3703 6.93067 95.3703 6.824V6.184C95.3703 6.06667 95.4023 5.976 95.4663 5.912C95.5409 5.83733 95.6316 5.8 95.7383 5.8H102.298C102.416 5.8 102.506 5.83733 102.57 5.912C102.645 5.976 102.682 6.06667 102.682 6.184V6.776C102.682 6.91467 102.672 7.02667 102.65 7.112C102.629 7.19733 102.597 7.29333 102.554 7.4L98.6023 16.6C98.5703 16.6853 98.5169 16.776 98.4423 16.872C98.3783 16.9573 98.2823 17 98.1543 17H97.2903ZM111.799 17.16C111.127 17.16 110.541 17.08 110.039 16.92C109.538 16.7493 109.117 16.5253 108.775 16.248C108.434 15.9707 108.173 15.6667 107.991 15.336C107.821 15.0053 107.73 14.664 107.719 14.312C107.719 14.216 107.751 14.1413 107.815 14.088C107.879 14.0347 107.959 14.008 108.055 14.008H108.839C108.935 14.008 109.021 14.0293 109.095 14.072C109.17 14.1147 109.234 14.2053 109.287 14.344C109.394 14.728 109.575 15.0267 109.831 15.24C110.098 15.4533 110.402 15.6027 110.743 15.688C111.095 15.7627 111.447 15.8 111.799 15.8C112.535 15.8 113.133 15.624 113.591 15.272C114.05 14.92 114.279 14.4027 114.279 13.72C114.279 13.0267 114.071 12.5307 113.655 12.232C113.239 11.9333 112.663 11.784 111.927 11.784H110.407C110.301 11.784 110.21 11.752 110.135 11.688C110.071 11.624 110.039 11.5333 110.039 11.416V10.984C110.039 10.888 110.055 10.808 110.087 10.744C110.13 10.6693 110.173 10.6053 110.215 10.552L113.319 7.16H108.599C108.493 7.16 108.402 7.128 108.327 7.064C108.263 7 108.231 6.90933 108.231 6.792V6.184C108.231 6.06667 108.263 5.976 108.327 5.912C108.402 5.83733 108.493 5.8 108.599 5.8H114.983C115.101 5.8 115.191 5.83733 115.255 5.912C115.33 5.976 115.367 6.06667 115.367 6.184V6.76C115.367 6.83467 115.346 6.904 115.303 6.968C115.271 7.02133 115.234 7.07467 115.191 7.128L112.103 10.568L112.359 10.584C113.063 10.6053 113.677 10.7333 114.199 10.968C114.733 11.2027 115.143 11.5547 115.431 12.024C115.73 12.4827 115.879 13.064 115.879 13.768C115.879 14.4827 115.703 15.096 115.351 15.608C114.999 16.1093 114.514 16.4933 113.895 16.76C113.277 17.0267 112.578 17.16 111.799 17.16ZM121.409 17.16C120.737 17.16 120.15 17.08 119.649 16.92C119.147 16.7493 118.726 16.5253 118.385 16.248C118.043 15.9707 117.782 15.6667 117.601 15.336C117.43 15.0053 117.339 14.664 117.329 14.312C117.329 14.216 117.361 14.1413 117.425 14.088C117.489 14.0347 117.569 14.008 117.665 14.008H118.449C118.545 14.008 118.63 14.0293 118.705 14.072C118.779 14.1147 118.843 14.2053 118.897 14.344C119.003 14.728 119.185 15.0267 119.441 15.24C119.707 15.4533 120.011 15.6027 120.353 15.688C120.705 15.7627 121.057 15.8 121.409 15.8C122.145 15.8 122.742 15.624 123.201 15.272C123.659 14.92 123.889 14.4027 123.889 13.72C123.889 13.0267 123.681 12.5307 123.265 12.232C122.849 11.9333 122.273 11.784 121.537 11.784H120.017C119.91 11.784 119.819 11.752 119.745 11.688C119.681 11.624 119.649 11.5333 119.649 11.416V10.984C119.649 10.888 119.665 10.808 119.697 10.744C119.739 10.6693 119.782 10.6053 119.825 10.552L122.929 7.16H118.209C118.102 7.16 118.011 7.128 117.937 7.064C117.873 7 117.841 6.90933 117.841 6.792V6.184C117.841 6.06667 117.873 5.976 117.937 5.912C118.011 5.83733 118.102 5.8 118.209 5.8H124.593C124.71 5.8 124.801 5.83733 124.865 5.912C124.939 5.976 124.977 6.06667 124.977 6.184V6.76C124.977 6.83467 124.955 6.904 124.913 6.968C124.881 7.02133 124.843 7.07467 124.801 7.128L121.713 10.568L121.969 10.584C122.673 10.6053 123.286 10.7333 123.809 10.968C124.342 11.2027 124.753 11.5547 125.041 12.024C125.339 12.4827 125.489 13.064 125.489 13.768C125.489 14.4827 125.313 15.096 124.961 15.608C124.609 16.1093 124.123 16.4933 123.505 16.76C122.886 17.0267 122.187 17.16 121.409 17.16ZM134.94 17.16C134.268 17.16 133.681 17.08 133.18 16.92C132.679 16.7493 132.257 16.5253 131.916 16.248C131.575 15.9707 131.313 15.6667 131.132 15.336C130.961 15.0053 130.871 14.664 130.86 14.312C130.86 14.216 130.892 14.1413 130.956 14.088C131.02 14.0347 131.1 14.008 131.196 14.008H131.98C132.076 14.008 132.161 14.0293 132.236 14.072C132.311 14.1147 132.375 14.2053 132.428 14.344C132.535 14.728 132.716 15.0267 132.972 15.24C133.239 15.4533 133.543 15.6027 133.884 15.688C134.236 15.7627 134.588 15.8 134.94 15.8C135.676 15.8 136.273 15.624 136.732 15.272C137.191 14.92 137.42 14.4027 137.42 13.72C137.42 13.0267 137.212 12.5307 136.796 12.232C136.38 11.9333 135.804 11.784 135.068 11.784H133.548C133.441 11.784 133.351 11.752 133.276 11.688C133.212 11.624 133.18 11.5333 133.18 11.416V10.984C133.18 10.888 133.196 10.808 133.228 10.744C133.271 10.6693 133.313 10.6053 133.356 10.552L136.46 7.16H131.74C131.633 7.16 131.543 7.128 131.468 7.064C131.404 7 131.372 6.90933 131.372 6.792V6.184C131.372 6.06667 131.404 5.976 131.468 5.912C131.543 5.83733 131.633 5.8 131.74 5.8H138.124C138.241 5.8 138.332 5.83733 138.396 5.912C138.471 5.976 138.508 6.06667 138.508 6.184V6.76C138.508 6.83467 138.487 6.904 138.444 6.968C138.412 7.02133 138.375 7.07467 138.332 7.128L135.244 10.568L135.5 10.584C136.204 10.6053 136.817 10.7333 137.34 10.968C137.873 11.2027 138.284 11.5547 138.572 12.024C138.871 12.4827 139.02 13.064 139.02 13.768C139.02 14.4827 138.844 15.096 138.492 15.608C138.14 16.1093 137.655 16.4933 137.036 16.76C136.417 17.0267 135.719 17.16 134.94 17.16ZM144.549 17.16C143.877 17.16 143.291 17.08 142.789 16.92C142.288 16.7493 141.867 16.5253 141.525 16.248C141.184 15.9707 140.923 15.6667 140.741 15.336C140.571 15.0053 140.48 14.664 140.469 14.312C140.469 14.216 140.501 14.1413 140.565 14.088C140.629 14.0347 140.709 14.008 140.805 14.008H141.589C141.685 14.008 141.771 14.0293 141.845 14.072C141.92 14.1147 141.984 14.2053 142.037 14.344C142.144 14.728 142.325 15.0267 142.581 15.24C142.848 15.4533 143.152 15.6027 143.493 15.688C143.845 15.7627 144.197 15.8 144.549 15.8C145.285 15.8 145.883 15.624 146.341 15.272C146.8 14.92 147.029 14.4027 147.029 13.72C147.029 13.0267 146.821 12.5307 146.405 12.232C145.989 11.9333 145.413 11.784 144.677 11.784H143.157C143.051 11.784 142.96 11.752 142.885 11.688C142.821 11.624 142.789 11.5333 142.789 11.416V10.984C142.789 10.888 142.805 10.808 142.837 10.744C142.88 10.6693 142.923 10.6053 142.965 10.552L146.069 7.16H141.349C141.243 7.16 141.152 7.128 141.077 7.064C141.013 7 140.981 6.90933 140.981 6.792V6.184C140.981 6.06667 141.013 5.976 141.077 5.912C141.152 5.83733 141.243 5.8 141.349 5.8H147.733C147.851 5.8 147.941 5.83733 148.005 5.912C148.08 5.976 148.117 6.06667 148.117 6.184V6.76C148.117 6.83467 148.096 6.904 148.053 6.968C148.021 7.02133 147.984 7.07467 147.941 7.128L144.853 10.568L145.109 10.584C145.813 10.6053 146.427 10.7333 146.949 10.968C147.483 11.2027 147.893 11.5547 148.181 12.024C148.48 12.4827 148.629 13.064 148.629 13.768C148.629 14.4827 148.453 15.096 148.101 15.608C147.749 16.1093 147.264 16.4933 146.645 16.76C146.027 17.0267 145.328 17.16 144.549 17.16Z" fill="#414141"/>
<path fill-rule="evenodd" clip-rule="evenodd" d="M0.0227362 6.12795C-0.209223 4.28205 1.37081 3 3.06772 3H6.65939C7.38432 3 8.00552 3.51844 8.1352 4.23167L8.74153 7.56653C8.92265 8.56268 8.66352 9.58845 8.03103 10.3791L7.30764 11.2833C7.17873 11.4444 7.16694 11.6581 7.26652 11.8205C7.73609 12.5862 8.58076 13.8797 9.34752 14.6464C10.1143 15.4132 11.4078 16.2579 12.1735 16.7274C12.3359 16.827 12.5495 16.8152 12.7107 16.6863L13.6149 15.9629C14.4055 15.3304 15.4313 15.0713 16.4274 15.2524L19.7623 15.8588C20.4755 15.9885 20.994 16.6096 20.994 17.3346V20.6816C20.994 22.5032 19.543 24.124 17.6093 23.813C14.2966 23.2803 9.56155 21.5768 5.62757 17.3402C1.80252 13.2209 0.385498 9.01475 0.0227362 6.12795ZM3.06772 4C1.80321 4 0.877656 4.91084 1.01493 6.00326C1.35323 8.69537 2.68662 12.7034 6.36036 16.6598C10.1098 20.6977 14.6229 22.3199 17.768 22.8257C18.9625 23.0178 19.994 22.0285 19.994 20.6816V17.3346C19.994 17.0929 19.8212 16.8859 19.5834 16.8426L16.2486 16.2363C15.537 16.1069 14.8043 16.292 14.2396 16.7438L13.3354 17.4672C12.8575 17.8495 12.1859 17.9081 11.6507 17.5799C10.8875 17.1119 9.50015 16.2133 8.64041 15.3536C7.78068 14.4938 6.88209 13.1064 6.41406 12.3433C6.08586 11.8081 6.1445 11.1364 6.52677 10.6586L7.25016 9.75437C7.70194 9.18964 7.88703 8.45695 7.75766 7.74541L7.15133 4.41056C7.1081 4.17281 6.90103 4 6.65939 4H3.06772Z" fill="#414141"/>
</svg>
