<svg width="107" height="44" viewBox="0 0 107 44" fill="none" xmlns="http://www.w3.org/2000/svg">
<g filter="url(#filter0_d_50_3955)">
<path d="M4 0H103V36H4V0Z" fill="#FC825B"/>
</g>
<path d="M7.65625 23V12.8182H12.0511C12.8068 12.8182 13.468 12.9673 14.0348 13.2656C14.6016 13.5639 15.0424 13.9832 15.3572 14.5234C15.6721 15.0637 15.8295 15.6951 15.8295 16.4176C15.8295 17.1468 15.6671 17.7782 15.3423 18.3118C15.0208 18.8454 14.5684 19.2564 13.9851 19.5447C13.4051 19.8331 12.7273 19.9773 11.9517 19.9773H9.3267V17.8295H11.3949C11.7197 17.8295 11.9964 17.7732 12.2251 17.6605C12.4571 17.5445 12.6345 17.3804 12.7571 17.1683C12.883 16.9562 12.946 16.706 12.946 16.4176C12.946 16.1259 12.883 15.8774 12.7571 15.6719C12.6345 15.4631 12.4571 15.304 12.2251 15.1946C11.9964 15.0819 11.7197 15.0256 11.3949 15.0256H10.4205V23H7.65625ZM20.3786 23.1392C19.5632 23.1392 18.8606 22.9834 18.2706 22.6719C17.6839 22.357 17.2315 21.9062 16.9134 21.3196C16.5985 20.7296 16.4411 20.0237 16.4411 19.2017C16.4411 18.4129 16.6001 17.7235 16.9183 17.1335C17.2365 16.5436 17.6856 16.0845 18.2656 15.7564C18.8456 15.4283 19.5301 15.2642 20.3189 15.2642C20.8956 15.2642 21.4176 15.3537 21.8849 15.5327C22.3523 15.7116 22.7517 15.9718 23.0831 16.3132C23.4145 16.6513 23.6697 17.0623 23.8487 17.5462C24.0277 18.0301 24.1172 18.5753 24.1172 19.1818V19.8182H17.2962V18.3068H21.5916C21.5883 18.0881 21.532 17.8958 21.4226 17.7301C21.3165 17.5611 21.1723 17.4302 20.9901 17.3374C20.8111 17.2412 20.6072 17.1932 20.3786 17.1932C20.1565 17.1932 19.9527 17.2412 19.767 17.3374C19.5814 17.4302 19.4323 17.5594 19.3196 17.7251C19.2102 17.8909 19.1522 18.0848 19.1456 18.3068V19.9375C19.1456 20.1828 19.197 20.4015 19.2997 20.5938C19.4025 20.786 19.55 20.9368 19.7422 21.0462C19.9344 21.1555 20.1664 21.2102 20.4382 21.2102C20.6271 21.2102 20.7995 21.1837 20.9553 21.1307C21.1143 21.0777 21.2502 21.0014 21.3629 20.902C21.4756 20.7992 21.5585 20.6766 21.6115 20.5341H24.1172C24.031 21.0644 23.8272 21.5251 23.5057 21.9162C23.1842 22.304 22.7583 22.6056 22.228 22.821C21.701 23.0331 21.0845 23.1392 20.3786 23.1392ZM30.8052 15.3636V17.4119H27.8819V23H25.237V15.3636H30.8052ZM34.3984 19.5L36.5263 15.3636H39.1115V23H36.5263V18.8438L34.3984 23H31.8132V15.3636H34.3984V19.5ZM44.1875 23.1392C43.3589 23.1392 42.6496 22.9751 42.0597 22.647C41.4697 22.3156 41.0173 21.8549 40.7024 21.2649C40.3875 20.6716 40.2301 19.9839 40.2301 19.2017C40.2301 18.4195 40.3875 17.7334 40.7024 17.1435C41.0173 16.5502 41.4697 16.0895 42.0597 15.7614C42.6496 15.4299 43.3589 15.2642 44.1875 15.2642C44.9366 15.2642 45.5845 15.4001 46.1314 15.6719C46.6816 15.9403 47.1075 16.3215 47.4091 16.8153C47.7107 17.3059 47.8632 17.8826 47.8665 18.5455H45.321C45.2846 18.1444 45.1686 17.8395 44.973 17.6307C44.7808 17.4186 44.5322 17.3125 44.2273 17.3125C43.9886 17.3125 43.7798 17.3821 43.6009 17.5213C43.4219 17.6572 43.2827 17.8643 43.1832 18.1428C43.0838 18.4179 43.0341 18.7642 43.0341 19.1818C43.0341 19.5994 43.0838 19.9474 43.1832 20.2259C43.2827 20.5009 43.4219 20.7081 43.6009 20.8473C43.7798 20.9832 43.9886 21.0511 44.2273 21.0511C44.4295 21.0511 44.6084 21.0047 44.7642 20.9119C44.92 20.8158 45.0459 20.6766 45.142 20.4943C45.2415 20.3087 45.3011 20.0833 45.321 19.8182H47.8665C47.8565 20.491 47.7024 21.0777 47.4041 21.5781C47.1058 22.0753 46.6832 22.4598 46.1364 22.7315C45.5928 23.0033 44.9432 23.1392 44.1875 23.1392ZM48.5389 17.4119V15.3636H55.9366V17.4119H53.5105V23H50.9252V17.4119H48.5389ZM56.9558 25.8636V15.3636H59.6802V16.696H59.7399C59.8393 16.4375 59.9851 16.2005 60.1774 15.9851C60.3696 15.7663 60.6083 15.5923 60.8933 15.4631C61.1783 15.3305 61.5098 15.2642 61.8876 15.2642C62.3914 15.2642 62.8703 15.3984 63.3244 15.6669C63.7818 15.9354 64.153 16.358 64.438 16.9347C64.7264 17.5114 64.8706 18.2604 64.8706 19.1818C64.8706 20.0634 64.733 20.7943 64.4579 21.3743C64.1861 21.9543 63.8216 22.3868 63.3642 22.6719C62.9101 22.9569 62.4113 23.0994 61.8677 23.0994C61.5098 23.0994 61.1899 23.0414 60.9082 22.9254C60.6298 22.8061 60.3912 22.6454 60.1923 22.4432C59.9967 22.2377 59.8459 22.0057 59.7399 21.7472H59.7001V25.8636H56.9558ZM59.6404 19.1818C59.6404 19.553 59.6885 19.8745 59.7846 20.1463C59.8841 20.4148 60.0233 20.6236 60.2022 20.7727C60.3845 20.9186 60.6016 20.9915 60.8535 20.9915C61.1054 20.9915 61.3192 20.9202 61.4949 20.7777C61.6738 20.6319 61.8097 20.4247 61.9025 20.1562C61.9986 19.8845 62.0467 19.5597 62.0467 19.1818C62.0467 18.804 61.9986 18.4808 61.9025 18.2124C61.8097 17.9406 61.6738 17.7334 61.4949 17.5909C61.3192 17.4451 61.1054 17.3722 60.8535 17.3722C60.6016 17.3722 60.3845 17.4451 60.2022 17.5909C60.0233 17.7334 59.8841 17.9406 59.7846 18.2124C59.6885 18.4808 59.6404 18.804 59.6404 19.1818ZM68.1481 23.1193C67.6609 23.1193 67.23 23.0398 66.8555 22.8807C66.4843 22.7183 66.1926 22.473 65.9805 22.1449C65.7683 21.8168 65.6623 21.3991 65.6623 20.892C65.6623 20.4744 65.7335 20.1181 65.8761 19.8232C66.0186 19.5249 66.2174 19.2812 66.4727 19.0923C66.7279 18.9034 67.0245 18.7592 67.3626 18.6598C67.704 18.5604 68.0719 18.4957 68.4663 18.4659C68.8938 18.4328 69.2369 18.393 69.4954 18.3466C69.7572 18.2969 69.9461 18.2289 70.0621 18.1428C70.1781 18.0533 70.2362 17.9356 70.2362 17.7898V17.7699C70.2362 17.571 70.1599 17.4186 70.0075 17.3125C69.855 17.2064 69.6594 17.1534 69.4208 17.1534C69.159 17.1534 68.9452 17.2114 68.7795 17.3274C68.6171 17.4401 68.5193 17.6141 68.4862 17.8494H65.9606C65.9937 17.3854 66.1412 16.9579 66.4031 16.5668C66.6682 16.1723 67.0543 15.8575 67.5614 15.6222C68.0685 15.3835 68.7016 15.2642 69.4606 15.2642C70.0075 15.2642 70.498 15.3288 70.9322 15.4581C71.3664 15.584 71.7359 15.7614 72.0408 15.9901C72.3458 16.2154 72.5778 16.4806 72.7369 16.7855C72.8993 17.0871 72.9805 17.4152 72.9805 17.7699V23H70.4151V21.9261H70.3555C70.203 22.2112 70.0174 22.4415 69.7987 22.6172C69.5832 22.7929 69.3363 22.9205 69.0579 23C68.7828 23.0795 68.4795 23.1193 68.1481 23.1193ZM69.043 21.3892C69.2518 21.3892 69.4473 21.3461 69.6296 21.2599C69.8152 21.1738 69.966 21.0495 70.082 20.8871C70.198 20.7247 70.256 20.5275 70.256 20.2955V19.6591C70.1831 19.6889 70.1052 19.7171 70.0224 19.7436C69.9428 19.7701 69.8567 19.795 69.7638 19.8182C69.6744 19.8414 69.5782 19.8629 69.4755 19.8828C69.3761 19.9027 69.2717 19.9209 69.1623 19.9375C68.9502 19.9706 68.7762 20.0253 68.6403 20.1016C68.5077 20.1745 68.4083 20.2656 68.342 20.375C68.279 20.4811 68.2475 20.6004 68.2475 20.733C68.2475 20.9451 68.3221 21.1075 68.4712 21.2202C68.6204 21.3329 68.811 21.3892 69.043 21.3892ZM81.411 15.3636V21.2898H82.7235V25.446H80.0787V23H74.2917V15.3636H76.877V20.9517H78.8656V15.3636H81.411ZM86.2832 19.5L88.411 15.3636H90.9963V23H88.411V18.8438L86.2832 23H83.698V15.3636H86.2832V19.5ZM96.7882 23V17.4119H95.7541C95.4094 17.4119 95.1558 17.4915 94.9934 17.6506C94.831 17.8097 94.7531 17.9687 94.7598 18.1278C94.7531 18.2969 94.836 18.456 95.0083 18.6051C95.1807 18.7509 95.4492 18.8239 95.8137 18.8239H97.7626V20.4744H95.8137C95.068 20.4744 94.4217 20.37 93.8748 20.1612C93.3279 19.9524 92.907 19.6641 92.612 19.2962C92.3171 18.9283 92.1712 18.5057 92.1745 18.0284C92.1712 17.5114 92.3137 17.0523 92.6021 16.6513C92.8938 16.2502 93.3081 15.9354 93.845 15.7067C94.3852 15.478 95.0216 15.3636 95.7541 15.3636H99.3336V23H96.7882ZM92.095 23L94.1831 18.9034H96.7086L94.6206 23H92.095Z" fill="black"/>
<defs>
<filter id="filter0_d_50_3955" x="0" y="0" width="107" height="44" filterUnits="userSpaceOnUse" color-interpolation-filters="sRGB">
<feFlood flood-opacity="0" result="BackgroundImageFix"/>
<feColorMatrix in="SourceAlpha" type="matrix" values="0 0 0 0 0 0 0 0 0 0 0 0 0 0 0 0 0 0 127 0" result="hardAlpha"/>
<feOffset dy="4"/>
<feGaussianBlur stdDeviation="2"/>
<feComposite in2="hardAlpha" operator="out"/>
<feColorMatrix type="matrix" values="0 0 0 0 0 0 0 0 0 0 0 0 0 0 0 0 0 0 0.25 0"/>
<feBlend mode="normal" in2="BackgroundImageFix" result="effect1_dropShadow_50_3955"/>
<feBlend mode="normal" in="SourceGraphic" in2="effect1_dropShadow_50_3955" result="shape"/>
</filter>
</defs>
</svg>
