<svg width="107" height="44" viewBox="0 0 107 44" fill="none" xmlns="http://www.w3.org/2000/svg">
<g filter="url(#filter0_d_49_4701)">
<path d="M4 0H103V36H4V0Z" fill="#D3D3D3"/>
</g>
<path d="M52.0028 12.8182V23H49.2784V15.0057H45.8381V23H43.1136V12.8182H52.0028ZM57.4902 23.1392C56.6616 23.1392 55.9524 22.9751 55.3624 22.647C54.7724 22.3156 54.32 21.8549 54.0051 21.2649C53.6903 20.6716 53.5328 19.9839 53.5328 19.2017C53.5328 18.4195 53.6903 17.7334 54.0051 17.1435C54.32 16.5502 54.7724 16.0895 55.3624 15.7614C55.9524 15.4299 56.6616 15.2642 57.4902 15.2642C58.3188 15.2642 59.0281 15.4299 59.6181 15.7614C60.208 16.0895 60.6605 16.5502 60.9753 17.1435C61.2902 17.7334 61.4476 18.4195 61.4476 19.2017C61.4476 19.9839 61.2902 20.6716 60.9753 21.2649C60.6605 21.8549 60.208 22.3156 59.6181 22.647C59.0281 22.9751 58.3188 23.1392 57.4902 23.1392ZM57.5101 21.1108C57.7421 21.1108 57.9426 21.0329 58.1117 20.8771C58.2807 20.7214 58.4116 20.4993 58.5044 20.2109C58.5972 19.9226 58.6436 19.5795 58.6436 19.1818C58.6436 18.7808 58.5972 18.4377 58.5044 18.1527C58.4116 17.8643 58.2807 17.6423 58.1117 17.4865C57.9426 17.3307 57.7421 17.2528 57.5101 17.2528C57.2649 17.2528 57.0544 17.3307 56.8787 17.4865C56.7031 17.6423 56.5688 17.8643 56.476 18.1527C56.3832 18.4377 56.3368 18.7808 56.3368 19.1818C56.3368 19.5795 56.3832 19.9226 56.476 20.2109C56.5688 20.4993 56.7031 20.7214 56.8787 20.8771C57.0544 21.0329 57.2649 21.1108 57.5101 21.1108ZM65.1465 19.5L67.2743 15.3636H69.8596V23H67.2743V18.8438L65.1465 23H62.5613V15.3636H65.1465V19.5ZM74.9355 23.1392C74.1069 23.1392 73.3977 22.9751 72.8077 22.647C72.2177 22.3156 71.7653 21.8549 71.4505 21.2649C71.1356 20.6716 70.9782 19.9839 70.9782 19.2017C70.9782 18.4195 71.1356 17.7334 71.4505 17.1435C71.7653 16.5502 72.2177 16.0895 72.8077 15.7614C73.3977 15.4299 74.1069 15.2642 74.9355 15.2642C75.6846 15.2642 76.3326 15.4001 76.8794 15.6719C77.4296 15.9403 77.8555 16.3215 78.1571 16.8153C78.4587 17.3059 78.6112 17.8826 78.6145 18.5455H76.0691C76.0326 18.1444 75.9166 17.8395 75.7211 17.6307C75.5288 17.4186 75.2802 17.3125 74.9753 17.3125C74.7367 17.3125 74.5279 17.3821 74.3489 17.5213C74.1699 17.6572 74.0307 17.8643 73.9313 18.1428C73.8319 18.4179 73.7821 18.7642 73.7821 19.1818C73.7821 19.5994 73.8319 19.9474 73.9313 20.2259C74.0307 20.5009 74.1699 20.7081 74.3489 20.8473C74.5279 20.9832 74.7367 21.0511 74.9753 21.0511C75.1775 21.0511 75.3565 21.0047 75.5123 20.9119C75.668 20.8158 75.794 20.6766 75.8901 20.4943C75.9895 20.3087 76.0492 20.0833 76.0691 19.8182H78.6145C78.6046 20.491 78.4505 21.0777 78.1522 21.5781C77.8539 22.0753 77.4313 22.4598 76.8844 22.7315C76.3408 23.0033 75.6912 23.1392 74.9355 23.1392ZM79.7468 23V15.3636H82.4911V18.0881H82.9684L84.5991 15.3636H87.7411L85.2951 19.2216L87.761 23H84.5792L83.1076 20.6335H82.4911V23H79.7468Z" fill="black"/>
<path d="M24.5833 18L23 19.4234L30.1205 27.3438L31.7037 25.9205L24.5833 18Z" fill="black"/>
<circle cx="20.5" cy="14.5" r="5.75" stroke="black" stroke-width="1.5"/>
<defs>
<filter id="filter0_d_49_4701" x="0" y="0" width="107" height="44" filterUnits="userSpaceOnUse" color-interpolation-filters="sRGB">
<feFlood flood-opacity="0" result="BackgroundImageFix"/>
<feColorMatrix in="SourceAlpha" type="matrix" values="0 0 0 0 0 0 0 0 0 0 0 0 0 0 0 0 0 0 127 0" result="hardAlpha"/>
<feOffset dy="4"/>
<feGaussianBlur stdDeviation="2"/>
<feComposite in2="hardAlpha" operator="out"/>
<feColorMatrix type="matrix" values="0 0 0 0 0 0 0 0 0 0 0 0 0 0 0 0 0 0 0.25 0"/>
<feBlend mode="normal" in2="BackgroundImageFix" result="effect1_dropShadow_49_4701"/>
<feBlend mode="normal" in="SourceGraphic" in2="effect1_dropShadow_49_4701" result="shape"/>
</filter>
</defs>
</svg>
