<svg width="107" height="44" viewBox="0 0 107 44" fill="none" xmlns="http://www.w3.org/2000/svg">
<g filter="url(#filter0_d_49_4740)">
<path d="M4 0H103V36H4V0Z" fill="#FC825B"/>
</g>
<path d="M45.3182 23V20.8722L45.5966 20.8324C45.9347 20.7794 46.2147 20.6335 46.4368 20.3949C46.6622 20.1529 46.8345 19.7701 46.9538 19.2464C47.0765 18.7195 47.1544 18.0019 47.1875 17.0938L47.3466 12.8182H54.7244V23H52.0597V14.9659H49.892L49.733 18.1676C49.6733 19.3542 49.5142 20.3004 49.2557 21.0064C48.9972 21.7124 48.6044 22.2211 48.0774 22.5327C47.5504 22.8442 46.8561 23 45.9943 23H45.3182ZM60.6667 18.1676V20.2358H56.4508V18.1676H60.6667ZM58.519 15.3636V23H55.7747V15.3636H58.519ZM62.9139 23.1392C62.1118 23.1392 61.4257 22.9669 60.8556 22.6222C60.2856 22.2775 59.8497 21.8052 59.5481 21.2053C59.2465 20.6054 59.0957 19.9242 59.0957 19.1619C59.0957 18.4062 59.2465 17.7351 59.5481 17.1484C59.8497 16.5618 60.2856 16.1011 60.8556 15.7663C61.4257 15.4316 62.1118 15.2642 62.9139 15.2642C63.716 15.2642 64.4004 15.4316 64.9672 15.7663C65.5372 16.1011 65.9731 16.5618 66.2747 17.1484C66.5796 17.7351 66.7321 18.4062 66.7321 19.1619C66.7321 19.9242 66.5796 20.6054 66.2747 21.2053C65.9731 21.8052 65.5372 22.2775 64.9672 22.6222C64.4004 22.9669 63.716 23.1392 62.9139 23.1392ZM62.9139 20.9915C63.2188 20.9915 63.4608 20.9202 63.6397 20.7777C63.8187 20.6319 63.948 20.4231 64.0275 20.1513C64.1071 19.8762 64.1468 19.5464 64.1468 19.1619C64.1468 18.7775 64.1071 18.4527 64.0275 18.1875C63.948 17.919 63.8187 17.7169 63.6397 17.581C63.4608 17.4418 63.2188 17.3722 62.9139 17.3722C62.609 17.3722 62.3637 17.4401 62.1781 17.576C61.9958 17.7119 61.8632 17.9124 61.7804 18.1776C61.7008 18.4427 61.661 18.7708 61.661 19.1619C61.661 19.553 61.7008 19.8845 61.7804 20.1562C61.8632 20.428 61.9958 20.6352 62.1781 20.7777C62.3637 20.9202 62.609 20.9915 62.9139 20.9915ZM67.4144 25.267V20.9318H67.9712C68.1469 20.8622 68.2844 20.6982 68.3839 20.4396C68.4866 20.1778 68.5645 19.8712 68.6175 19.5199C68.6739 19.1686 68.7137 18.8139 68.7369 18.456C68.7634 18.0947 68.7866 17.7798 68.8065 17.5114L68.9656 15.3636H75.4883V20.9318H76.6815V25.267H74.0962V23H70.0792V25.267H67.4144ZM70.5962 20.9318H72.9428V17.3523H71.2326V17.5114C71.1928 18.3366 71.1265 19.0244 71.0337 19.5746C70.9409 20.1214 70.7951 20.5739 70.5962 20.9318ZM80.2871 19.5L82.415 15.3636H85.0002V23H82.415V18.8438L80.2871 23H77.7019V15.3636H80.2871V19.5Z" fill="black"/>
<mask id="mask0_49_4740" style="mask-type:alpha" maskUnits="userSpaceOnUse" x="16" y="17" width="15" height="11">
<rect x="16" y="17" width="15" height="11" fill="#D9D9D9"/>
</mask>
<g mask="url(#mask0_49_4740)">
<path d="M30 21C30 18.7909 28.2091 17 26 17L21 17C18.7909 17 17 18.7909 17 21L17 26C17 28.2091 18.7909 30 21 30L26 30C28.2091 30 30 28.2091 30 26L30 21Z" fill="black"/>
</g>
<path d="M28 13.5C28 15.9853 25.9853 18 23.5 18C21.0147 18 19 15.9853 19 13.5C19 11.0147 21.0147 9 23.5 9C25.9853 9 28 11.0147 28 13.5Z" fill="black"/>
<defs>
<filter id="filter0_d_49_4740" x="0" y="0" width="107" height="44" filterUnits="userSpaceOnUse" color-interpolation-filters="sRGB">
<feFlood flood-opacity="0" result="BackgroundImageFix"/>
<feColorMatrix in="SourceAlpha" type="matrix" values="0 0 0 0 0 0 0 0 0 0 0 0 0 0 0 0 0 0 127 0" result="hardAlpha"/>
<feOffset dy="4"/>
<feGaussianBlur stdDeviation="2"/>
<feComposite in2="hardAlpha" operator="out"/>
<feColorMatrix type="matrix" values="0 0 0 0 0 0 0 0 0 0 0 0 0 0 0 0 0 0 0.25 0"/>
<feBlend mode="normal" in2="BackgroundImageFix" result="effect1_dropShadow_49_4740"/>
<feBlend mode="normal" in="SourceGraphic" in2="effect1_dropShadow_49_4740" result="shape"/>
</filter>
</defs>
</svg>
